<svg width="345" height="66" viewBox="0 0 345 66" fill="none" xmlns="http://www.w3.org/2000/svg">
<line x1="289.354" y1="14.3536" x2="267.354" y2="36.3536" stroke="#3D424C"/>
<line x1="32.3536" y1="24.3536" x2="10.3536" y2="46.3536" stroke="#3D424C"/>
<line x1="333.243" y1="36.0355" x2="340.314" y2="28.9645" stroke="#3D424C" stroke-linecap="round"/>
<line x1="333.243" y1="28.9645" x2="340.314" y2="36.0355" stroke="#3D424C" stroke-linecap="round"/>
<line x1="268.243" y1="11.3137" x2="275.314" y2="4.24264" stroke="#3D424C" stroke-linecap="round"/>
<line x1="268.243" y1="4.24263" x2="275.314" y2="11.3137" stroke="#3D424C" stroke-linecap="round"/>
<line x1="72.2427" y1="51.3137" x2="79.3137" y2="44.2426" stroke="#3D424C" stroke-linecap="round"/>
<line x1="72.2426" y1="44.2426" x2="79.3137" y2="51.3137" stroke="#3D424C" stroke-linecap="round"/>
<line x1="5.77808" y1="22.7782" x2="5.77808" y2="12.7782" stroke="#3D424C" stroke-linecap="round"/>
<line x1="0.778076" y1="17.7782" x2="10.7781" y2="17.7782" stroke="#3D424C" stroke-linecap="round"/>
<circle cx="52" cy="47" r="4.5" fill="#21242A" fill-opacity="0.4" stroke="#3D424C"/>
<circle cx="49" cy="19" r="2.5" fill="#21242A" fill-opacity="0.4" stroke="#3D424C"/>
<circle cx="315" cy="52" r="2.5" fill="#21242A" fill-opacity="0.4" stroke="#3D424C"/>
<circle cx="310" cy="24" r="4.5" fill="#21242A" fill-opacity="0.4" stroke="#3D424C"/>
<circle cx="76" cy="12" r="6.5" fill="#21242A" fill-opacity="0.4" stroke="#3D424C"/>
<circle cx="288" cy="59" r="6.5" fill="#21242A" fill-opacity="0.4" stroke="#3D424C"/>
</svg>
