<svg width="16" height="18" viewBox="0 0 16 18" fill="none" xmlns="http://www.w3.org/2000/svg">
<path d="M7.00583 9.88781C7.37587 9.88781 7.69069 9.75606 7.9503 9.49254C8.20992 9.22904 8.33972 8.91227 8.33972 8.54223C8.33972 8.1722 8.20797 7.85738 7.94447 7.59777C7.68096 7.33816 7.36419 7.20835 6.99416 7.20835C6.62412 7.20835 6.30929 7.3401 6.04968 7.6036C5.79007 7.86712 5.66026 8.18389 5.66026 8.55392C5.66026 8.92396 5.79201 9.23878 6.05551 9.4984C6.31903 9.75801 6.6358 9.88781 7.00583 9.88781ZM6.99999 2.41669C7.2158 2.41669 7.42065 2.42524 7.61455 2.44233C7.80847 2.45943 7.99677 2.48589 8.17945 2.52171V3.45835C8.17945 3.97045 8.36179 4.40884 8.72647 4.77352C9.09115 5.1382 9.52954 5.32054 10.0416 5.32054H10.6795V5.95835C10.6795 6.47045 10.8618 6.90884 11.2265 7.27352C11.5912 7.6382 12.0295 7.82054 12.5416 7.82054H13.0694C13.0829 7.95825 13.0953 8.08956 13.1065 8.21448C13.1178 8.3394 13.1234 8.46876 13.1234 8.60256C13.1234 9.43328 12.9251 10.264 12.5287 11.0947C12.1323 11.9253 11.655 12.7091 11.0968 13.446C10.5387 14.1828 9.95431 14.8509 9.34372 15.4502C8.73315 16.0495 8.2222 16.5292 7.81087 16.8894C7.68138 16.993 7.5516 17.0708 7.42151 17.1226C7.29142 17.1744 7.15091 17.2003 6.99999 17.2003C6.85149 17.2003 6.71341 17.1757 6.58574 17.1266C6.45808 17.0774 6.32853 17.001 6.19712 16.8974C5.79649 16.5555 5.29463 16.0889 4.69153 15.4976C4.08844 14.9063 3.5011 14.2423 2.92951 13.5056C2.35793 12.769 1.87289 11.9797 1.47439 11.1378C1.07587 10.2959 0.876617 9.45085 0.876617 8.60256C0.876617 6.90173 1.4466 5.44554 2.58655 4.234C3.7265 3.02246 5.19765 2.41669 6.99999 2.41669ZM12 4H10.0416C9.88818 4 9.75954 3.94849 9.65572 3.84546C9.5519 3.74243 9.49999 3.61476 9.49999 3.46246C9.49999 3.31015 9.5519 3.18112 9.65572 3.07535C9.75954 2.96958 9.88818 2.91669 10.0416 2.91669H12V0.958354C12 0.804881 12.0515 0.676236 12.1545 0.572417C12.2576 0.468598 12.3852 0.416687 12.5375 0.416687C12.6898 0.416687 12.8189 0.468598 12.9246 0.572417C13.0304 0.676236 13.0833 0.804881 13.0833 0.958354V2.91669H15.0416C15.1951 2.91669 15.3238 2.96821 15.4276 3.07125C15.5314 3.17428 15.5833 3.30194 15.5833 3.45425C15.5833 3.60656 15.5314 3.73559 15.4276 3.84135C15.3238 3.94712 15.1951 4 15.0416 4H13.0833V5.95835C13.0833 6.11181 13.0318 6.24045 12.9287 6.34427C12.8257 6.44809 12.698 6.5 12.5457 6.5C12.3934 6.5 12.2644 6.44809 12.1586 6.34427C12.0529 6.24045 12 6.11181 12 5.95835V4Z" fill="url(#paint0_linear_13_1654)"/>
<defs>
<linearGradient id="paint0_linear_13_1654" x1="8.22996" y1="0.416687" x2="8.22996" y2="17.2003" gradientUnits="userSpaceOnUse">
<stop stop-color="#FE6B35"/>
<stop offset="1" stop-color="#813317"/>
</linearGradient>
</defs>
</svg>
