<svg width="12" height="14" viewBox="0 0 12 14" fill="none" xmlns="http://www.w3.org/2000/svg">
<path d="M0.416687 12.25V5.3782C0.416687 5.16957 0.463097 4.97191 0.555916 4.78525C0.648736 4.59857 0.782347 4.43618 0.956749 4.2981L5.20033 1.09939C5.44968 0.926309 5.7158 0.839767 5.99871 0.839767C6.28161 0.839767 6.5486 0.926309 6.79967 1.09939L11.0432 4.2981C11.2177 4.43618 11.3513 4.59857 11.4441 4.78525C11.5369 4.97191 11.5833 5.16957 11.5833 5.3782V12.25C11.5833 12.6137 11.452 12.9269 11.1894 13.1894C10.9269 13.452 10.6137 13.5833 10.25 13.5833H8.08973C7.89994 13.5833 7.74085 13.5191 7.61246 13.3907C7.48407 13.2623 7.41987 13.1032 7.41987 12.9134V9.0096C7.41987 8.8198 7.35585 8.6607 7.22781 8.53231C7.09977 8.40392 6.94111 8.33973 6.75183 8.33973H5.25548C5.0662 8.33973 4.90633 8.40392 4.77585 8.53231C4.64537 8.6607 4.58012 8.8198 4.58012 9.0096V12.9134C4.58012 13.1032 4.51593 13.2623 4.38754 13.3907C4.25915 13.5191 4.10006 13.5833 3.91027 13.5833H1.75C1.38628 13.5833 1.07313 13.452 0.810562 13.1894C0.547978 12.9269 0.416687 12.6137 0.416687 12.25Z" fill="url(#paint0_linear_13_1674)"/>
<defs>
<linearGradient id="paint0_linear_13_1674" x1="6" y1="0.839767" x2="6" y2="13.5833" gradientUnits="userSpaceOnUse">
<stop stop-color="#FE6B35"/>
<stop offset="1" stop-color="#813317"/>
</linearGradient>
</defs>
</svg>
