<svg width="16" height="15" viewBox="0 0 16 15" fill="none" xmlns="http://www.w3.org/2000/svg">
<path d="M4.75002 3.74682L6.96154 0.852589C7.09722 0.680214 7.25748 0.550582 7.44231 0.463693C7.62715 0.376804 7.81999 0.333359 8.02083 0.333359C8.22168 0.333359 8.41105 0.376804 8.58894 0.463693C8.76683 0.550582 8.92361 0.680214 9.05929 0.852589L11.2708 3.74682L14.6747 4.86861C14.9621 4.97439 15.184 5.14014 15.3405 5.36588C15.497 5.59163 15.5753 5.84537 15.5753 6.12709C15.5753 6.26245 15.557 6.39389 15.5203 6.52142C15.4836 6.64894 15.4223 6.77374 15.3365 6.89584L13.1346 9.90544L13.2179 13.1683C13.2179 13.5515 13.0872 13.8762 12.8257 14.1424C12.5642 14.4086 12.2527 14.5417 11.891 14.5417C11.8793 14.5417 11.7607 14.5235 11.5353 14.4872L8 13.4823L4.46475 14.4872C4.39531 14.5149 4.33405 14.531 4.28098 14.5352C4.22791 14.5395 4.17058 14.5417 4.10898 14.5417C3.7436 14.5417 3.42764 14.4086 3.16108 14.1424C2.89453 13.8762 2.76819 13.5515 2.78208 13.1683L2.86542 9.90544L0.655479 6.89584C0.569645 6.7732 0.508388 6.6513 0.471708 6.53015C0.435027 6.409 0.416687 6.28089 0.416687 6.14584C0.416687 5.85935 0.497812 5.59834 0.660062 5.3628C0.822312 5.12724 1.05369 4.95985 1.35419 4.86061L4.75002 3.74682Z" fill="url(#paint0_linear_13_1659)"/>
<defs>
<linearGradient id="paint0_linear_13_1659" x1="7.99599" y1="0.333359" x2="7.99599" y2="14.5417" gradientUnits="userSpaceOnUse">
<stop stop-color="#FE6B35"/>
<stop offset="1" stop-color="#813317"/>
</linearGradient>
</defs>
</svg>
