<svg width="20" height="20" viewBox="0 0 20 20" fill="none" xmlns="http://www.w3.org/2000/svg">
<mask id="mask0_20_2903" style="mask-type:alpha" maskUnits="userSpaceOnUse" x="0" y="0" width="20" height="20">
<rect width="20" height="20" fill="#D9D9D9"/>
</mask>
<g mask="url(#mask0_20_2903)">
<path d="M7.59617 14.2628C7.20674 14.2628 6.87541 14.1262 6.60217 13.8529C6.32894 13.5797 6.19232 13.2484 6.19232 12.8589V12.2756H15.1715L15.4359 12.5401V6H16.0192C16.4086 6 16.74 6.13662 17.0132 6.40985C17.2864 6.68309 17.423 7.01442 17.423 7.40383V15.266C17.423 15.5602 17.2863 15.7657 17.0128 15.8825C16.7393 15.9992 16.4978 15.9529 16.2884 15.7435L14.8077 14.2628H7.59617ZM5.19232 10.7756L3.71157 12.2564C3.50218 12.4658 3.26073 12.5121 2.98722 12.3954C2.71372 12.2786 2.57697 12.0731 2.57697 11.7788V3.82054C2.57697 3.43111 2.71358 3.09978 2.98682 2.82654C3.26006 2.55331 3.59139 2.41669 3.98082 2.41669H12.5321C12.9215 2.41669 13.2528 2.55331 13.526 2.82654C13.7993 3.09978 13.9359 3.43111 13.9359 3.82054V9.37179C13.9359 9.76121 13.7993 10.0925 13.526 10.3658C13.2528 10.639 12.9215 10.7756 12.5321 10.7756H5.19232Z" fill="url(#paint0_linear_20_2903)"/>
</g>
<defs>
<linearGradient id="paint0_linear_20_2903" x1="10" y1="2.41669" x2="10" y2="15.9452" gradientUnits="userSpaceOnUse">
<stop stop-color="#FE6B35"/>
<stop offset="1" stop-color="#813317"/>
</linearGradient>
</defs>
</svg>
