<svg width="20" height="20" viewBox="0 0 20 20" fill="none" xmlns="http://www.w3.org/2000/svg">
<mask id="mask0_20_3353" style="mask-type:alpha" maskUnits="userSpaceOnUse" x="0" y="0" width="20" height="20">
<rect width="20" height="20" fill="#D9D9D9"/>
</mask>
<g mask="url(#mask0_20_3353)">
<g filter="url(#filter0_d_20_3353)">
<path d="M9.99998 9.74355C9.19551 9.74355 8.50828 9.45856 7.93829 8.88859C7.36832 8.31862 7.08333 7.6314 7.08333 6.82692C7.08333 6.02244 7.36832 5.33521 7.93829 4.76524C8.50828 4.19526 9.19551 3.91028 9.99998 3.91028C10.8045 3.91028 11.4917 4.19526 12.0617 4.76524C12.6316 5.33521 12.9166 6.02244 12.9166 6.82692C12.9166 7.6314 12.6316 8.31862 12.0617 8.88859C11.4917 9.45856 10.8045 9.74355 9.99998 9.74355ZM5.016 16.0897C4.66451 16.0897 4.36565 15.9666 4.1194 15.7203C3.87313 15.4741 3.75 15.1752 3.75 14.8237V14.2372C3.75 13.829 3.86085 13.4511 4.08254 13.1034C4.30422 12.7556 4.60042 12.4883 4.97115 12.3013C5.79487 11.8974 6.6258 11.5946 7.46394 11.3926C8.30208 11.1907 9.14742 11.0898 9.99998 11.0898C10.8525 11.0898 11.6979 11.1907 12.536 11.3926C13.3742 11.5946 14.2051 11.8974 15.0288 12.3013C15.3995 12.4883 15.6957 12.7556 15.9174 13.1034C16.1391 13.4511 16.25 13.829 16.25 14.2372V14.8237C16.25 15.1752 16.1268 15.4741 15.8806 15.7203C15.6343 15.9666 15.3354 16.0897 14.984 16.0897H5.016Z" fill="url(#paint0_linear_20_3353)"/>
</g>
</g>
<defs>
<filter id="filter0_d_20_3353" x="-1.25" y="0.910278" width="20.5" height="20.1794" filterUnits="userSpaceOnUse" color-interpolation-filters="sRGB">
<feFlood flood-opacity="0" result="BackgroundImageFix"/>
<feColorMatrix in="SourceAlpha" type="matrix" values="0 0 0 0 0 0 0 0 0 0 0 0 0 0 0 0 0 0 127 0" result="hardAlpha"/>
<feOffset dx="-1" dy="1"/>
<feGaussianBlur stdDeviation="2"/>
<feComposite in2="hardAlpha" operator="out"/>
<feColorMatrix type="matrix" values="0 0 0 0 0.968627 0 0 0 0 0.976471 0 0 0 0 0.984314 0 0 0 0.16 0"/>
<feBlend mode="normal" in2="BackgroundImageFix" result="effect1_dropShadow_20_3353"/>
<feBlend mode="normal" in="SourceGraphic" in2="effect1_dropShadow_20_3353" result="shape"/>
</filter>
<linearGradient id="paint0_linear_20_3353" x1="9.99998" y1="3.91028" x2="10" y2="21" gradientUnits="userSpaceOnUse">
<stop stop-color="#F7F9FB"/>
<stop offset="1" stop-color="#939495"/>
</linearGradient>
</defs>
</svg>
