<svg width="20" height="20" viewBox="0 0 20 20" fill="none" xmlns="http://www.w3.org/2000/svg">
<mask id="mask0_20_2899" style="mask-type:alpha" maskUnits="userSpaceOnUse" x="0" y="0" width="20" height="20">
<rect width="20" height="20" fill="#D9D9D9"/>
</mask>
<g mask="url(#mask0_20_2899)">
<path d="M15.4711 16.5625C13.9562 16.4375 12.5 16.0376 11.1025 15.363C9.70512 14.6883 8.43856 13.7831 7.30288 12.6474C6.17255 11.5117 5.27351 10.2465 4.60578 8.85178C3.93804 7.45701 3.54167 6.00216 3.41667 4.48721C3.38889 4.19555 3.4757 3.94074 3.67709 3.7228C3.87848 3.50484 4.125 3.39586 4.41667 3.39586H6.59292C6.84506 3.39586 7.06194 3.47145 7.24357 3.62263C7.42519 3.77381 7.55179 3.97119 7.62336 4.21478L8.05926 5.97917C8.09238 6.16507 8.08196 6.3467 8.02801 6.52405C7.97406 6.70139 7.88619 6.84562 7.76438 6.95673L5.83971 8.83013C6.14955 9.41132 6.49303 9.95833 6.87017 10.4712C7.24731 10.984 7.66077 11.4637 8.11055 11.9103C8.55394 12.3537 9.03311 12.7644 9.54807 13.1427C10.063 13.5209 10.6191 13.8649 11.2163 14.1747L13.1907 12.2468C13.3072 12.125 13.4407 12.0438 13.5913 12.0032C13.742 11.9626 13.9102 11.9562 14.0962 11.984L15.7644 12.351C16.0165 12.4204 16.216 12.5486 16.3629 12.7356C16.5098 12.9226 16.5833 13.1448 16.5833 13.4023V15.5625C16.5833 15.8542 16.4708 16.1007 16.2459 16.3021C16.0211 16.5035 15.7628 16.5903 15.4711 16.5625Z" fill="url(#paint0_linear_20_2899)"/>
</g>
<defs>
<linearGradient id="paint0_linear_20_2899" x1="9.99746" y1="3.39586" x2="9.99746" y2="16.5675" gradientUnits="userSpaceOnUse">
<stop stop-color="#FE6B35"/>
<stop offset="1" stop-color="#813317"/>
</linearGradient>
</defs>
</svg>
