<svg width="16" height="16" viewBox="0 0 16 16" fill="none" xmlns="http://www.w3.org/2000/svg">
<path fill-rule="evenodd" clip-rule="evenodd" d="M6.25 0C2.79822 0 0 2.79822 0 6.25C0 9.70178 2.79822 12.5 6.25 12.5C7.61497 12.5 8.87775 12.0624 9.9057 11.3199L13.8554 15.2696C14.2459 15.6601 14.8791 15.6601 15.2696 15.2696C15.6601 14.8791 15.6601 14.2459 15.2696 13.8554L11.3199 9.9057C12.0624 8.87775 12.5 7.61497 12.5 6.25C12.5 2.79822 9.70178 0 6.25 0ZM2 6.25C2 3.90279 3.90279 2 6.25 2C8.59721 2 10.5 3.90279 10.5 6.25C10.5 8.59721 8.59721 10.5 6.25 10.5C3.90279 10.5 2 8.59721 2 6.25Z" fill="#3D424C"/>
</svg>
