<svg width="16" height="15" viewBox="0 0 16 15" fill="none" xmlns="http://www.w3.org/2000/svg">
<path d="M1.75644 14.5833C1.38133 14.5833 1.06426 14.4538 0.805229 14.1948C0.546201 13.9357 0.416687 13.6187 0.416687 13.2436V4.75643C0.416687 4.38132 0.546201 4.06425 0.805229 3.80522C1.06426 3.5462 1.38133 3.41668 1.75644 3.41668H5.41669V2.1687C5.41669 1.79238 5.54638 1.47575 5.80577 1.21881C6.06516 0.961862 6.38266 0.833389 6.75827 0.833389H9.24906C9.62467 0.833389 9.94095 0.962904 10.1979 1.22193C10.4548 1.48096 10.5833 1.79802 10.5833 2.17312V3.41668H14.2436C14.6187 3.41668 14.9357 3.5462 15.1948 3.80522C15.4538 4.06425 15.5833 4.38132 15.5833 4.75643V13.2436C15.5833 13.6187 15.4538 13.9357 15.1948 14.1948C14.9357 14.4538 14.6187 14.5833 14.2436 14.5833H1.75644ZM6.5 3.41668H9.5V2.17312C9.5 2.10901 9.47329 2.05024 9.41987 1.99683C9.36644 1.9434 9.30767 1.91668 9.24356 1.91668H6.75644C6.69233 1.91668 6.63356 1.9434 6.58012 1.99683C6.52671 2.05024 6.5 2.10901 6.5 2.17312V3.41668Z" fill="url(#paint0_linear_13_1669)"/>
<defs>
<linearGradient id="paint0_linear_13_1669" x1="8" y1="0.833389" x2="8" y2="14.5833" gradientUnits="userSpaceOnUse">
<stop stop-color="#FE6B35"/>
<stop offset="1" stop-color="#813317"/>
</linearGradient>
</defs>
</svg>
